<svg width="229" height="90" viewBox="0 0 229 90" fill="none" xmlns="http://www.w3.org/2000/svg">
<path d="M7.44734 69.7951C10.8893 75.0081 15.379 79.4473 20.6304 82.8302C25.8819 86.2131 31.7802 88.4656 37.9499 89.4443C44.1195 90.423 50.4253 90.1064 56.4659 88.5147C62.5065 86.9231 68.1495 84.0912 73.0358 80.1993L63.5036 68.2316C60.2787 70.8002 56.5543 72.6692 52.5675 73.7197C48.5807 74.7702 44.4189 74.9792 40.3469 74.3332C36.2749 73.6873 32.3821 72.2007 28.9161 69.9679C25.4501 67.7352 22.487 64.8053 20.2152 61.3648L7.44734 69.7951Z" fill="#5A30E5"/>
<path d="M72.7048 80.4605C79.0331 75.5163 83.9229 68.9687 86.867 61.4971L72.6322 55.8881C70.6891 60.8193 67.4618 65.1407 63.2851 68.4039L72.7048 80.4605Z" fill="#37BCC2"/>
<path d="M86.7583 61.7703C87.7772 59.2333 88.5627 56.6087 89.1052 53.9291L74.1095 50.8932C73.7514 52.6617 73.2329 54.394 72.5605 56.0684L86.7583 61.7703Z" fill="#37BCC2"/>
<path d="M69.5088 7.25983C62.758 2.8758 54.9548 0.382794 46.9127 0.0406657C38.8705 -0.301463 30.8838 1.51981 23.7851 5.31465C16.6863 9.10949 10.7354 14.739 6.55262 21.6163C2.36983 28.4936 0.108315 36.3669 0.00379386 44.4157L15.3025 44.6143C15.3715 39.3022 16.8641 34.1058 19.6247 29.5667C22.3854 25.0277 26.313 21.3123 30.9981 18.8077C35.6833 16.3031 40.9545 15.101 46.2624 15.3268C51.5702 15.5526 56.7203 17.198 61.1758 20.0915L69.5088 7.25983Z" fill="#F9AA0C"/>
<path d="M61.3392 19.8399C56.8391 16.9175 51.6376 15.2555 46.2768 15.0272C40.9159 14.7988 35.592 16.0124 30.8597 18.5415C26.1274 21.0706 22.16 24.8226 19.371 29.4065C16.582 33.9904 15.0735 39.2385 15.0026 44.6037L30.0013 44.8019C30.0367 42.1192 30.791 39.4952 32.1855 37.2033C33.58 34.9113 35.5637 33.0353 37.9298 31.7708C40.296 30.5062 42.958 29.8994 45.6384 30.0136C48.3188 30.1278 50.9196 30.9588 53.1696 32.4199L61.3392 19.8399Z" fill="#F03B21"/>
<path d="M63.4698 68.6403C67.6884 65.3444 70.9482 60.9796 72.911 55.9989L58.9555 50.4995C57.9741 52.9898 56.3442 55.1722 54.2349 56.8202L63.4698 68.6403Z" fill="#37BCC2"/>
<path d="M72.839 56.1799C73.5185 54.4879 74.0423 52.7374 74.404 50.9502L59.702 47.9751C59.5212 48.8687 59.2593 49.7439 58.9195 50.59L72.839 56.1799Z" fill="#37BCC2"/>
<path d="M30 45C30 48.9782 31.5804 52.7936 34.3934 55.6066C37.2064 58.4196 41.0218 60 45 60C48.9782 60 52.7936 58.4196 55.6066 55.6066C58.4196 52.7936 60 48.9783 60 45L45 45L30 45Z" fill="#37BCC2"/>
<path d="M129.097 43.8579V53.8896C128.687 54.3568 128.06 54.8581 127.217 55.3936C126.386 55.929 125.32 56.3905 124.021 56.7778C122.723 57.1538 121.173 57.3418 119.373 57.3418C117.744 57.3418 116.263 57.0798 114.93 56.5557C113.597 56.0202 112.452 55.2397 111.495 54.2144C110.538 53.1776 109.797 51.9129 109.273 50.4204C108.76 48.9279 108.504 47.2189 108.504 45.2935V43.8237C108.504 41.8983 108.76 40.1893 109.273 38.6968C109.786 37.2043 110.509 35.9453 111.443 34.9199C112.378 33.8831 113.488 33.097 114.776 32.5615C116.063 32.026 117.487 31.7583 119.048 31.7583C121.27 31.7583 123.087 32.1172 124.5 32.835C125.913 33.5413 126.984 34.5212 127.713 35.7744C128.453 37.0277 128.909 38.4689 129.08 40.0981H123.714C123.6 39.2664 123.372 38.5487 123.03 37.9448C122.7 37.341 122.227 36.8796 121.612 36.5605C120.997 36.2301 120.199 36.0649 119.219 36.0649C118.433 36.0649 117.721 36.2301 117.083 36.5605C116.456 36.8796 115.927 37.3638 115.494 38.0132C115.061 38.6626 114.73 39.4715 114.502 40.4399C114.275 41.397 114.161 42.5135 114.161 43.7896V45.2935C114.161 46.5695 114.275 47.6917 114.502 48.6602C114.742 49.6286 115.089 50.4375 115.545 51.0869C116.001 51.7249 116.576 52.2091 117.271 52.5396C117.977 52.87 118.798 53.0352 119.732 53.0352C120.461 53.0352 121.076 52.9782 121.578 52.8643C122.079 52.7389 122.489 52.5851 122.808 52.4028C123.127 52.2091 123.366 52.0326 123.526 51.873V47.7373H119.1V43.8579H129.097ZM141.351 57.3418C139.881 57.3418 138.565 57.1082 137.403 56.6411C136.241 56.174 135.255 55.5303 134.446 54.71C133.649 53.8783 133.039 52.9212 132.618 51.8389C132.196 50.7565 131.985 49.6001 131.985 48.3696V47.7202C131.985 46.3416 132.179 45.0713 132.566 43.9092C132.954 42.7471 133.518 41.7388 134.258 40.8843C135.01 40.0184 135.933 39.3519 137.027 38.8848C138.121 38.4062 139.368 38.167 140.77 38.167C142.08 38.167 143.248 38.3835 144.273 38.8164C145.298 39.238 146.164 39.8475 146.871 40.645C147.577 41.4312 148.112 42.3825 148.477 43.499C148.853 44.6042 149.041 45.846 149.041 47.2246V49.4121H134.139V45.9771H143.812V45.5669C143.812 44.9175 143.692 44.3478 143.453 43.8579C143.225 43.368 142.883 42.992 142.427 42.73C141.983 42.4565 141.419 42.3198 140.735 42.3198C140.086 42.3198 139.545 42.4565 139.112 42.73C138.679 43.0034 138.331 43.3908 138.069 43.8921C137.819 44.382 137.636 44.9574 137.522 45.6182C137.409 46.2676 137.352 46.9683 137.352 47.7202V48.3696C137.352 49.0874 137.448 49.7425 137.642 50.335C137.836 50.9274 138.121 51.4344 138.497 51.856C138.873 52.2775 139.328 52.6079 139.864 52.8472C140.399 53.0864 141.009 53.2061 141.692 53.2061C142.535 53.2061 143.339 53.0465 144.102 52.7275C144.865 52.3971 145.526 51.8844 146.084 51.1895L148.58 54.0435C148.204 54.5903 147.674 55.1201 146.99 55.6328C146.318 56.1341 145.509 56.5443 144.563 56.8633C143.618 57.1823 142.547 57.3418 141.351 57.3418ZM156.988 42.8154V57H151.656V38.5088H156.663L156.988 42.8154ZM162.508 38.3721L162.422 43.3452C162.194 43.311 161.898 43.2826 161.534 43.2598C161.169 43.2256 160.856 43.2085 160.594 43.2085C159.91 43.2085 159.318 43.2939 158.816 43.4648C158.326 43.6243 157.916 43.8636 157.586 44.1826C157.267 44.5016 157.028 44.9004 156.868 45.3789C156.709 45.846 156.629 46.3872 156.629 47.0024L155.621 46.5068C155.621 45.2878 155.74 44.1712 155.979 43.1572C156.219 42.1432 156.566 41.266 157.022 40.5254C157.478 39.7734 158.036 39.1924 158.697 38.7822C159.358 38.3721 160.11 38.167 160.953 38.167C161.226 38.167 161.505 38.1841 161.79 38.2183C162.075 38.2524 162.314 38.3037 162.508 38.3721ZM173.069 57.3418C171.6 57.3418 170.284 57.1082 169.122 56.6411C167.959 56.174 166.974 55.5303 166.165 54.71C165.368 53.8783 164.758 52.9212 164.336 51.8389C163.915 50.7565 163.704 49.6001 163.704 48.3696V47.7202C163.704 46.3416 163.898 45.0713 164.285 43.9092C164.673 42.7471 165.236 41.7388 165.977 40.8843C166.729 40.0184 167.652 39.3519 168.746 38.8848C169.839 38.4062 171.087 38.167 172.488 38.167C173.799 38.167 174.966 38.3835 175.992 38.8164C177.017 39.238 177.883 39.8475 178.589 40.645C179.296 41.4312 179.831 42.3825 180.196 43.499C180.572 44.6042 180.76 45.846 180.76 47.2246V49.4121H165.857V45.9771H175.53V45.5669C175.53 44.9175 175.411 44.3478 175.171 43.8579C174.944 43.368 174.602 42.992 174.146 42.73C173.702 42.4565 173.138 42.3198 172.454 42.3198C171.805 42.3198 171.264 42.4565 170.831 42.73C170.398 43.0034 170.05 43.3908 169.788 43.8921C169.537 44.382 169.355 44.9574 169.241 45.6182C169.127 46.2676 169.07 46.9683 169.07 47.7202V48.3696C169.07 49.0874 169.167 49.7425 169.361 50.335C169.555 50.9274 169.839 51.4344 170.215 51.856C170.591 52.2775 171.047 52.6079 171.583 52.8472C172.118 53.0864 172.728 53.2061 173.411 53.2061C174.254 53.2061 175.057 53.0465 175.821 52.7275C176.584 52.3971 177.245 51.8844 177.803 51.1895L180.298 54.0435C179.922 54.5903 179.393 55.1201 178.709 55.6328C178.037 56.1341 177.228 56.5443 176.282 56.8633C175.337 57.1823 174.266 57.3418 173.069 57.3418ZM188.98 30.75V57H183.631V30.75H188.98ZM201.541 57.3418C200.071 57.3418 198.755 57.1082 197.593 56.6411C196.431 56.174 195.446 55.5303 194.637 54.71C193.839 53.8783 193.23 52.9212 192.808 51.8389C192.387 50.7565 192.176 49.6001 192.176 48.3696V47.7202C192.176 46.3416 192.369 45.0713 192.757 43.9092C193.144 42.7471 193.708 41.7388 194.449 40.8843C195.201 40.0184 196.124 39.3519 197.217 38.8848C198.311 38.4062 199.559 38.167 200.96 38.167C202.27 38.167 203.438 38.3835 204.463 38.8164C205.489 39.238 206.355 39.8475 207.061 40.645C207.767 41.4312 208.303 42.3825 208.667 43.499C209.043 44.6042 209.231 45.846 209.231 47.2246V49.4121H194.329V45.9771H204.002V45.5669C204.002 44.9175 203.882 44.3478 203.643 43.8579C203.415 43.368 203.073 42.992 202.618 42.73C202.173 42.4565 201.609 42.3198 200.926 42.3198C200.276 42.3198 199.735 42.4565 199.302 42.73C198.869 43.0034 198.522 43.3908 198.26 43.8921C198.009 44.382 197.827 44.9574 197.713 45.6182C197.599 46.2676 197.542 46.9683 197.542 47.7202V48.3696C197.542 49.0874 197.639 49.7425 197.833 50.335C198.026 50.9274 198.311 51.4344 198.687 51.856C199.063 52.2775 199.519 52.6079 200.054 52.8472C200.59 53.0864 201.199 53.2061 201.883 53.2061C202.726 53.2061 203.529 53.0465 204.292 52.7275C205.056 52.3971 205.717 51.8844 206.275 51.1895L208.77 54.0435C208.394 54.5903 207.864 55.1201 207.181 55.6328C206.508 56.1341 205.7 56.5443 204.754 56.8633C203.808 57.1823 202.737 57.3418 201.541 57.3418ZM220.545 57.3418C219.075 57.3418 217.759 57.1082 216.597 56.6411C215.435 56.174 214.45 55.5303 213.641 54.71C212.843 53.8783 212.234 52.9212 211.812 51.8389C211.39 50.7565 211.18 49.6001 211.18 48.3696V47.7202C211.18 46.3416 211.373 45.0713 211.761 43.9092C212.148 42.7471 212.712 41.7388 213.453 40.8843C214.205 40.0184 215.127 39.3519 216.221 38.8848C217.315 38.4062 218.562 38.167 219.964 38.167C221.274 38.167 222.442 38.3835 223.467 38.8164C224.493 39.238 225.359 39.8475 226.065 40.645C226.771 41.4312 227.307 42.3825 227.671 43.499C228.047 44.6042 228.235 45.846 228.235 47.2246V49.4121H213.333V45.9771H223.006V45.5669C223.006 44.9175 222.886 44.3478 222.647 43.8579C222.419 43.368 222.077 42.992 221.622 42.73C221.177 42.4565 220.613 42.3198 219.93 42.3198C219.28 42.3198 218.739 42.4565 218.306 42.73C217.873 43.0034 217.526 43.3908 217.264 43.8921C217.013 44.382 216.831 44.9574 216.717 45.6182C216.603 46.2676 216.546 46.9683 216.546 47.7202V48.3696C216.546 49.0874 216.643 49.7425 216.836 50.335C217.03 50.9274 217.315 51.4344 217.691 51.856C218.067 52.2775 218.523 52.6079 219.058 52.8472C219.594 53.0864 220.203 53.2061 220.887 53.2061C221.73 53.2061 222.533 53.0465 223.296 52.7275C224.06 52.3971 224.721 51.8844 225.279 51.1895L227.774 54.0435C227.398 54.5903 226.868 55.1201 226.185 55.6328C225.512 56.1341 224.703 56.5443 223.758 56.8633C222.812 57.1823 221.741 57.3418 220.545 57.3418Z" fill="#37BCC2"/>
</svg>
