<?xml version="1.0" standalone="no"?>
<!DOCTYPE svg PUBLIC "-//W3C//DTD SVG 20010904//EN"
 "http://www.w3.org/TR/2001/REC-SVG-20010904/DTD/svg10.dtd">
<svg version="1.0" xmlns="http://www.w3.org/2000/svg"
 width="440.000000pt" height="178.000000pt" viewBox="0 0 440.000000 178.000000"
 preserveAspectRatio="xMidYMid meet">

<g transform="translate(0.000000,178.000000) scale(0.100000,-0.100000)"
fill="#000000" stroke="none">
<path d="M2185 1145 c-42 -23 -61 -42 -75 -76 -29 -69 20 -143 119 -179 136
-50 152 -64 137 -125 -14 -53 -130 -60 -173 -10 -13 14 -23 33 -23 41 0 10
-12 14 -40 14 -35 0 -40 -3 -40 -22 0 -13 9 -37 20 -55 63 -103 285 -103 334
1 44 93 -8 164 -159 216 -71 24 -95 45 -95 80 0 82 143 93 177 13 13 -31 17
-34 51 -31 33 3 37 6 34 28 -4 31 -29 67 -66 94 -37 28 -157 34 -201 11z"/>
<path d="M1018 1105 c-5 -5 -8 -104 -8 -222 l0 -213 -215 0 -215 0 0 -220 0
-220 353 0 c373 0 406 4 497 50 69 35 110 70 157 133 123 168 108 402 -35 551
-102 105 -186 136 -387 143 -77 3 -143 2 -147 -2z"/>
<path d="M3037 1021 c-32 -16 -39 -17 -44 -5 -3 8 -19 14 -39 14 l-34 0 0
-185 0 -185 40 0 40 0 0 134 c0 128 1 136 22 150 12 9 37 16 55 16 31 0 33 2
33 34 0 22 -6 36 -16 40 -20 8 -14 9 -57 -13z"/>
<path d="M3231 1018 c-62 -32 -86 -80 -85 -173 0 -51 6 -81 22 -111 38 -74
109 -100 176 -65 22 12 42 19 44 16 11 -11 -20 -85 -40 -96 -27 -15 -104 -6
-127 15 -16 15 -19 15 -36 -4 -23 -26 -15 -43 31 -65 79 -37 180 -16 228 48
20 26 21 43 24 238 l3 209 -40 0 c-31 0 -41 -4 -41 -16 0 -15 -2 -15 -24 -1
-43 28 -87 30 -135 5z m133 -69 c24 -19 26 -26 26 -102 0 -95 -19 -127 -76
-127 -69 0 -106 77 -83 172 18 76 77 101 133 57z"/>
<path d="M2530 886 c0 -159 6 -186 46 -212 35 -24 111 -23 147 0 24 16 27 17
27 2 0 -12 10 -16 40 -16 l40 0 0 185 0 185 -40 0 -40 0 0 -135 c0 -122 -2
-137 -20 -155 -24 -24 -82 -27 -104 -4 -13 12 -16 41 -16 155 l0 139 -40 0
-40 0 0 -144z"/>
<path d="M3521 1023 c0 -4 28 -87 63 -183 61 -168 63 -176 49 -210 -16 -39
-28 -50 -61 -50 -20 0 -23 -4 -20 -32 2 -27 8 -34 30 -36 42 -5 84 23 107 70
11 24 52 134 90 246 l70 202 -43 0 -44 0 -26 -87 c-15 -49 -33 -106 -40 -128
l-13 -40 -39 125 -39 125 -43 3 c-23 2 -42 0 -41 -5z"/>
</g>
</svg>
